<?xml version="1.0" encoding="UTF-8"?><svg id="Layer_2" xmlns="http://www.w3.org/2000/svg" viewBox="0 0 199.29 70.45"><g id="Layer_1-2"><g><g><path d="m22.97,22.22c-3.73,1.92-8.51,2.37-10.09,2.37C4.63,24.59.79,18.23.79,12.73S4.74,0,13.93,0c4.03,0,6.7,1.28,7.5,1.28.34,0,.64-.07.87-.26h.53v6.1h-.75c-1.02-4.71-4.22-6.18-7.72-6.18C7.72.94,4.33,6.44,4.33,12.5c0,7.72,5.42,11.15,9.75,11.15,1.73,0,3.65-.37,5.76-1.43v-4.75c0-2.15-.75-2.86-3.01-2.86h-1.4v-.68h10.17v.68c-1.88.11-2.64.75-2.64,2.37v5.23Z" style="fill:#fff;"/><path d="m42.1,24.59c-7.38,0-13.59-4.75-13.59-11.79,0-7.49,5.76-12.8,13.78-12.8,7.12,0,13.22,4.86,13.22,11.64,0,7.61-6.1,12.96-13.41,12.96Zm-.79-23.65c-6.63,0-9.27,6.18-9.27,10.7,0,7.04,4.78,12.01,10.85,12.01s9.08-5.42,9.08-10.77c0-7-4.45-11.94-10.66-11.94Z" style="fill:#fff;"/><path d="m86.2.57v.71c-2.52.04-3.43,1.05-3.43,3.46v10.17c0,4.67-2.98,9.68-11.15,9.68-7.19,0-10.88-4.1-10.88-9.49V4.1c0-2.41-.68-2.79-3.24-2.82v-.71h9.68v.71h-.34c-2.07,0-2.98.56-2.98,2.75v10.47c0,5.09,2.98,8.14,8.59,8.14,4.25,0,8.59-1.77,8.59-8.17V5.69c0-3.62-.56-4.26-3.69-4.41v-.71h8.85Z" style="fill:#fff;"/><path d="m110.94,6.74c-1.24-3.5-4.48-5.8-8.59-5.8-6.29,0-10.2,4.56-10.2,10.88,0,6.82,4.9,11.82,10.62,11.82,2.98,0,6.63-1.01,9.19-5.57h.72c-.49,1.69-1.51,4.03-2.41,5.5-2.41-.34-4.07,1.02-8.51,1.02-7.65,0-13.15-5.05-13.15-12.02,0-7.31,5.65-12.58,13.52-12.58,4.75,0,6.78,1.51,7.95,1.51.41,0,.6-.11.68-.23h.56l.34,5.46h-.71Z" style="fill:#fff;"/><path d="m121.56,12.8v7.16c0,2.45.49,3.32,3.02,3.32h.11v.72h-9.45v-.72h.23c2.22,0,2.98-.6,2.98-2.75V3.96c0-1.96-.64-2.52-2.71-2.67v-.71h8.96v.71c-2.67,0-3.13.71-3.13,3.62v6.55h14.76v-7.42c0-2-.64-2.75-2.98-2.75h-.72v-.71h9.68v.71c-2.26.08-2.86.75-2.86,3.09v15.63c0,2.67.75,3.27,3.01,3.27h.37v.72h-10.66v-.72h1.17c2.45,0,2.98-.86,2.98-2.83v-7.65h-14.76Z" style="fill:#fff;"/><path d="m163.48,15.52h-.71c-.3-2.68-1.02-2.98-2.56-2.98h-6.36v8.02c0,1.73.64,2.07,2.03,2.07h5.8c2.64,0,3.43-1.02,4.37-4.26h.68l-.61,5.61h-20v-.72h1.05c3.01,0,3.54-.83,3.54-3.09V4.29c0-2.11-.49-3.01-3.01-3.01h-.83v-.71h18.08l.3,5.23h-.68c-.49-3.2-1.43-3.88-2.79-3.88h-7.95v9.26h6.74c1.36,0,2-.64,2.19-2.82h.71v7.16Z" style="fill:#fff;"/><path d="m176.81,20.45c0,2.26.9,2.83,3.01,2.83h.87v.72h-10.66v-.72h.64c2.23,0,3.01-.6,3.01-3.13V4.29c0-2.33-.64-3.01-2.82-3.01h-.83v-.71c.9,0,3.2-.15,4.74-.23,1.54-.08,2.3-.12,4.75-.12,6.97,0,10.09,2.86,10.09,6.7,0,2.82-1.92,5.2-5.01,6.1,1.39,1.09,2.52,2.15,4.29,3.92l2.97,2.97c2.22,2.22,4.52,3.62,7.42,3.81v.67c-6.59.3-8.29-1.13-11.64-4.48l-2.48-2.49c-1.66-1.66-2.98-2.75-3.88-3.35-.94.04-1.54.07-2.56.07-.83,0-1.32-.04-1.92-.07v6.36Zm0-7.08c.9.11,1.47.08,2.33.08,4.18,0,6.93-1.77,6.93-6.29,0-3.5-1.58-6.21-7.38-6.21-.72,0-1.2,0-1.88.08v12.35Z" style="fill:#fff;"/></g><rect y="54.23" width="33.28" height=".56" style="fill:#fff;"/><rect x="161.77" y="54.23" width="33.28" height=".56" style="fill:#fff;"/><g><path d="m39.22,56.54c0-3.81,2.93-6.94,6.74-6.94,2.25,0,3.91.85,5.05,2.25l-.91.75c-.94-1.17-2.18-1.86-4.14-1.86-3.26,0-5.41,2.51-5.41,5.8s2.15,5.77,5.41,5.77c2.08,0,3.45-.78,4.4-1.99l.91.75c-1.24,1.53-2.9,2.38-5.31,2.38-3.81,0-6.74-3.1-6.74-6.91Z" style="fill:#fff;"/><path d="m58.57,56.51c0-3.81,3.06-6.91,6.94-6.91s6.87,3.09,6.87,6.91-3,6.94-6.87,6.94-6.94-3.13-6.94-6.94Zm12.51,0c0-3.29-2.25-5.77-5.57-5.77s-5.64,2.48-5.64,5.77,2.31,5.8,5.64,5.8,5.57-2.51,5.57-5.8Z" style="fill:#fff;"/><path d="m81.24,39.67h1.27v23.51h-1.27v-23.51Z" style="fill:#fff;"/><path d="m92.61,39.67h1.27v23.51h-1.27v-23.51Z" style="fill:#fff;"/><path d="m109.67,62.3c2.22,0,3.68-.88,4.66-2.09l.85.75c-1.18,1.47-3.03,2.48-5.51,2.48-4.2,0-6.94-3.1-6.94-6.91s2.9-6.94,6.68-6.94c4.04,0,6.58,3.16,6.52,7.2h-11.89c.1,3.22,2.22,5.5,5.63,5.5Zm4.95-6.55c-.19-2.74-1.89-5.05-5.21-5.05-3.03,0-5.02,2.15-5.34,5.05h10.55Z" style="fill:#fff;"/><path d="m135.8,49.89v1.07h-2.99c.91.82,1.43,1.92,1.43,3.26,0,2.71-2.05,4.66-4.98,4.66-1.01,0-1.89-.2-2.64-.62-1.04.16-1.56.81-1.56,1.59,0,1.01.72,1.5,1.92,1.6l3.46.32c3.85.36,5.57,1.53,5.57,4.04,0,2.93-2.96,4.62-6.94,4.62s-6.64-1.6-6.64-4.37c0-2.02,1.43-3.13,3.45-3.71-1.31-.36-1.96-1.27-1.96-2.38s.75-2.02,1.82-2.34c-.98-.82-1.56-2.02-1.56-3.42,0-2.7,2.15-4.63,5.08-4.63.62,0,1.27.1,1.82.29h4.72Zm-12.09,16.16c0,2.12,1.86,3.29,5.34,3.29,3.22,0,5.67-1.2,5.67-3.52,0-1.83-1.01-2.64-4.46-2.9l-2.8-.19c-2.15.42-3.75,1.43-3.75,3.32Zm9.29-11.82c0-2.15-1.43-3.55-3.75-3.55s-3.81,1.4-3.81,3.55,1.43,3.58,3.81,3.58,3.75-1.43,3.75-3.58Z" style="fill:#fff;"/><path d="m149.67,62.3c2.22,0,3.68-.88,4.66-2.09l.85.75c-1.17,1.47-3.03,2.48-5.5,2.48-4.2,0-6.94-3.1-6.94-6.91s2.9-6.94,6.68-6.94c4.04,0,6.58,3.16,6.52,7.2h-11.89c.1,3.22,2.21,5.5,5.64,5.5Zm4.95-6.55c-.19-2.74-1.89-5.05-5.21-5.05-3.03,0-5.02,2.15-5.34,5.05h10.55Z" style="fill:#fff;"/></g></g></g></svg>