<?xml version="1.0" encoding="UTF-8"?><svg id="Layer_2" xmlns="http://www.w3.org/2000/svg" viewBox="0 0 336.19 41.01"><g id="Layer_1-2"><g><g><path d="m21.85,31.08c-3.67,1.89-8.38,2.34-9.94,2.34C3.78,33.42,0,27.15,0,21.73s3.9-12.54,12.95-12.54c3.97,0,6.6,1.26,7.38,1.26.33,0,.63-.08.85-.26h.52v6.01h-.74c-1-4.64-4.16-6.09-7.61-6.09-6.53,0-9.87,5.42-9.87,11.39,0,7.61,5.34,10.98,9.61,10.98,1.71,0,3.6-.37,5.68-1.41v-4.67c0-2.12-.74-2.82-2.97-2.82h-1.37v-.67h10.02v.67c-1.86.11-2.6.74-2.6,2.34v5.16Z" style="fill:#0069aa;"/><path d="m40.7,33.42c-7.27,0-13.39-4.68-13.39-11.61,0-7.38,5.68-12.61,13.58-12.61,7.01,0,13.02,4.79,13.02,11.46,0,7.49-6.01,12.76-13.21,12.76Zm-.78-23.3c-6.53,0-9.13,6.09-9.13,10.54,0,6.94,4.71,11.83,10.68,11.83s8.94-5.34,8.94-10.61c0-6.9-4.38-11.76-10.5-11.76Z" style="fill:#0069aa;"/><path d="m84.14,9.75v.71c-2.49.04-3.37,1.04-3.37,3.41v10.02c0,4.6-2.93,9.54-10.98,9.54-7.09,0-10.72-4.04-10.72-9.35v-10.83c0-2.37-.67-2.75-3.19-2.78v-.71h9.53v.71h-.33c-2.04,0-2.93.56-2.93,2.71v10.31c0,5.01,2.93,8.02,8.46,8.02,4.19,0,8.46-1.74,8.46-8.05v-8.65c0-3.56-.56-4.19-3.64-4.34v-.71h8.72Z" style="fill:#0069aa;"/><path d="m108.51,15.83c-1.22-3.45-4.42-5.71-8.46-5.71-6.2,0-10.05,4.49-10.05,10.72,0,6.71,4.82,11.65,10.46,11.65,2.93,0,6.53-1,9.05-5.49h.7c-.48,1.67-1.48,3.97-2.37,5.42-2.38-.34-4.01,1-8.39,1-7.53,0-12.95-4.97-12.95-11.84,0-7.2,5.56-12.39,13.32-12.39,4.67,0,6.68,1.48,7.83,1.48.41,0,.59-.11.67-.22h.56l.33,5.38h-.7Z" style="fill:#0069aa;"/><path d="m118.97,21.8v7.05c0,2.41.48,3.27,2.97,3.27h.11v.71h-9.31v-.71h.22c2.19,0,2.93-.59,2.93-2.71V13.08c0-1.93-.63-2.49-2.67-2.63v-.71h8.83v.71c-2.63,0-3.08.7-3.08,3.56v6.46h14.54v-7.31c0-1.97-.63-2.71-2.93-2.71h-.71v-.71h9.54v.71c-2.23.07-2.82.74-2.82,3.04v15.4c0,2.63.74,3.23,2.97,3.23h.37v.71h-10.5v-.71h1.15c2.41,0,2.93-.85,2.93-2.78v-7.53h-14.54Z" style="fill:#0069aa;"/><path d="m160.26,24.47h-.71c-.3-2.64-1-2.93-2.52-2.93h-6.27v7.9c0,1.71.63,2.04,2,2.04h5.71c2.6,0,3.38-1,4.31-4.19h.67l-.59,5.53h-19.7v-.71h1.04c2.97,0,3.49-.82,3.49-3.04v-15.66c0-2.08-.48-2.97-2.97-2.97h-.82v-.71h17.81l.3,5.16h-.67c-.48-3.15-1.41-3.82-2.75-3.82h-7.83v9.12h6.64c1.33,0,1.96-.63,2.15-2.78h.71v7.05Z" style="fill:#0069aa;"/><path d="m173.39,29.33c0,2.23.89,2.78,2.97,2.78h.86v.71h-10.5v-.71h.63c2.19,0,2.97-.59,2.97-3.08v-15.62c0-2.3-.63-2.97-2.78-2.97h-.82v-.71c.89,0,3.15-.15,4.67-.22,1.52-.07,2.26-.11,4.68-.11,6.86,0,9.94,2.82,9.94,6.6,0,2.78-1.89,5.12-4.93,6.01,1.37,1.08,2.49,2.11,4.23,3.86l2.93,2.93c2.19,2.19,4.45,3.56,7.31,3.74v.67c-6.49.3-8.17-1.11-11.47-4.41l-2.45-2.45c-1.63-1.63-2.93-2.71-3.82-3.3-.92.04-1.52.07-2.52.07-.82,0-1.3-.04-1.89-.07v6.27Zm0-6.97c.89.11,1.45.07,2.3.07,4.12,0,6.83-1.74,6.83-6.19,0-3.45-1.56-6.12-7.27-6.12-.7,0-1.18,0-1.85.07v12.17Z" style="fill:#0069aa;"/></g><polygon points="209.33 41.01 208.16 41.01 208.16 0 209.33 0 209.33 41.01 209.33 41.01" style="fill:#5c6f7c;"/><g><path d="m222.05,25.09c0-4.33,3.33-7.87,7.66-7.87,2.55,0,4.44.96,5.73,2.55l-1.04.85c-1.07-1.33-2.48-2.11-4.69-2.11-3.7,0-6.14,2.85-6.14,6.58s2.44,6.54,6.14,6.54c2.36,0,3.92-.89,4.99-2.25l1.03.85c-1.4,1.74-3.29,2.7-6.02,2.7-4.33,0-7.66-3.51-7.66-7.84Z" style="fill:#5c6f7c;"/><path d="m241.05,25.05c0-4.33,3.47-7.84,7.87-7.84s7.8,3.51,7.8,7.84-3.4,7.87-7.8,7.87-7.87-3.55-7.87-7.87Zm14.19,0c0-3.73-2.55-6.54-6.32-6.54s-6.39,2.81-6.39,6.54,2.62,6.58,6.39,6.58,6.32-2.84,6.32-6.58Z" style="fill:#5c6f7c;"/><path d="m263.81,5.94h1.44v26.69h-1.44V5.94Z" style="fill:#5c6f7c;"/><path d="m273.76,5.94h1.44v26.69h-1.44V5.94Z" style="fill:#5c6f7c;"/><path d="m290.17,31.63c2.51,0,4.18-1,5.29-2.37l.96.85c-1.33,1.66-3.44,2.81-6.24,2.81-4.77,0-7.87-3.51-7.87-7.84s3.29-7.87,7.58-7.87c4.59,0,7.47,3.59,7.39,8.17h-13.49c.11,3.66,2.51,6.25,6.4,6.25Zm5.62-7.43c-.22-3.11-2.14-5.73-5.92-5.73-3.44,0-5.69,2.44-6.06,5.73h11.98Z" style="fill:#5c6f7c;"/><path d="m316.85,17.55v1.22h-3.4c1.04.92,1.63,2.18,1.63,3.7,0,3.07-2.33,5.28-5.65,5.28-1.15,0-2.15-.22-3-.7-1.18.18-1.77.92-1.77,1.81,0,1.15.81,1.7,2.18,1.81l3.92.37c4.36.41,6.32,1.74,6.32,4.58,0,3.33-3.36,5.25-7.88,5.25s-7.54-1.81-7.54-4.95c0-2.29,1.63-3.55,3.92-4.22-1.48-.41-2.22-1.44-2.22-2.7s.85-2.29,2.07-2.66c-1.11-.92-1.78-2.29-1.78-3.88,0-3.07,2.44-5.25,5.77-5.25.7,0,1.44.11,2.07.33h5.36Zm-13.72,18.34c0,2.4,2.11,3.73,6.06,3.73,3.66,0,6.43-1.37,6.43-3.99,0-2.07-1.15-2.99-5.06-3.29l-3.18-.22c-2.44.48-4.25,1.63-4.25,3.77Zm10.54-13.42c0-2.44-1.63-4.03-4.25-4.03s-4.33,1.59-4.33,4.03,1.63,4.06,4.33,4.06,4.25-1.63,4.25-4.06Z" style="fill:#5c6f7c;"/><path d="m329.09,31.63c2.51,0,4.17-1,5.28-2.37l.96.85c-1.33,1.66-3.44,2.81-6.24,2.81-4.77,0-7.88-3.51-7.88-7.84s3.29-7.87,7.58-7.87c4.58,0,7.47,3.59,7.39,8.17h-13.49c.11,3.66,2.51,6.25,6.4,6.25Zm5.62-7.43c-.22-3.11-2.14-5.73-5.91-5.73-3.44,0-5.69,2.44-6.06,5.73h11.98Z" style="fill:#5c6f7c;"/></g></g></g></svg>