<?xml version="1.0" encoding="UTF-8"?><svg id="Layer_2" xmlns="http://www.w3.org/2000/svg" viewBox="0 0 125.53 134.34"><g id="Icon_Set"><g><path d="m124.34.72c-17.54-2.84-32.37,2.78-45.58,15.29l-53.17,50.38c-1.96,1.86-2.05,4.96-.19,6.93l21.12,22.29c1.86,1.96,4.96,2.05,6.93.19l53.17-50.38c13.28-12.58,19.61-27.1,17.73-44.69Z" style="fill:#fedd00;"/><g><path d="m123.71,14.05c-17.54-2.84-32.37,2.78-45.58,15.29l-53.17,50.38c-1.96,1.86-2.05,4.96-.19,6.93l21.12,22.29c1.86,1.96,4.96,2.05,6.93.19l53.17-50.38c13.28-12.58,19.61-27.1,17.73-44.69Z" style="fill:none; stroke:#231f20; stroke-linecap:round; stroke-linejoin:round; stroke-width:3px;"/><path d="m42.82,105.62l-7.01,10.49c-.79,1.19-2.48,1.33-3.46.29l-15.83-16.71c-.98-1.04-.75-2.72.48-3.44l10.85-6.43" style="fill:none; stroke:#231f20; stroke-linecap:round; stroke-linejoin:round; stroke-width:3px;"/><line x1="11.91" y1="107.77" x2="7.66" y2="111.8" style="fill:none; stroke:#231f20; stroke-linecap:round; stroke-linejoin:round; stroke-width:3px;"/><line x1="19.25" y1="112.95" x2="12.44" y2="119.4" style="fill:none; stroke:#231f20; stroke-linecap:round; stroke-linejoin:round; stroke-width:3px;"/><line x1="24.03" y1="120.55" x2="19.78" y2="124.58" style="fill:none; stroke:#231f20; stroke-linecap:round; stroke-linejoin:round; stroke-width:3px;"/><polyline points="74.36 88.7 73.59 117.22 57.11 132.84 57.55 116.59" style="fill:none; stroke:#231f20; stroke-linecap:round; stroke-linejoin:round; stroke-width:3px;"/><polyline points="46.51 59.3 17.99 58.53 1.5 74.15 17.75 74.59" style="fill:none; stroke:#231f20; stroke-linecap:round; stroke-linejoin:round; stroke-width:3px;"/><path d="m115.57,47.52c-5.84-2.28-11.29-5.85-15.89-10.71-4.6-4.86-7.87-10.49-9.83-16.44" style="fill:none; stroke:#231f20; stroke-linecap:round; stroke-linejoin:round; stroke-width:3px;"/></g></g></g></svg>