<?xml version="1.0" encoding="UTF-8"?><svg id="Layer_2" xmlns="http://www.w3.org/2000/svg" viewBox="0 0 150.69 131.07"><g id="Layer_1-2"><g><path d="m20.85,9.73L.3,31.72c-.73.78-.02,2.05,1.03,1.82l29.44-6.26c2.33-.5,4.46-1.7,6.09-3.44L57.41,1.85c.73-.78.02-2.05-1.03-1.82l-29.44,6.26c-2.33.5-4.46,1.7-6.09,3.44Z" style="fill:#fedd00;"/><polyline points="120.99 97.17 133.93 113.77 67.32 113.77 8.72 113.77 21.66 97.17 120.99 97.17" style="fill:#fedd00;"/><g><g><polyline points="136.25 103.86 149.19 120.45 82.57 120.45 15.96 120.45 28.9 103.86 136.25 103.86" style="fill:none; stroke:#fff; stroke-linecap:round; stroke-linejoin:round; stroke-width:3px;"/><path d="m149.19,120.45h0c0,2.87-1.93,5.55-5.17,7.18l-.79.4c-1.99,1-4.35,1.54-6.77,1.54H28.68c-2.42,0-4.78-.54-6.77-1.54l-.79-.4c-3.23-1.63-5.17-4.31-5.17-7.18h0" style="fill:none; stroke:#fff; stroke-linecap:round; stroke-linejoin:round; stroke-width:3px;"/></g><polyline points="72.44 32.1 136.29 32.1 136.29 103.86" style="fill:none; stroke:#fff; stroke-linecap:round; stroke-linejoin:round; stroke-width:3px;"/><line x1="28.86" y1="103.86" x2="28.86" y2="60.7" style="fill:none; stroke:#fff; stroke-linecap:round; stroke-linejoin:round; stroke-width:3px;"/></g><g><path d="m26.94,16.17L6.38,38.16c-.73.78-.02,2.05,1.03,1.82l29.44-6.26c2.33-.5,4.46-1.7,6.09-3.44l20.55-21.99c.73-.78.02-2.05-1.03-1.82l-29.44,6.26c-2.33.5-4.46,1.7-6.09,3.44Z" style="fill:none; stroke:#fff; stroke-linecap:round; stroke-linejoin:round; stroke-width:2.74px;"/><g><path d="m47.65,45.71c-5.77,3.26-12.08,5.57-18.52,6.7-1.23.22-2.34-.22-2.83-1.1l-7.64-13.52" style="fill:none; stroke:#231f20; stroke-linecap:round; stroke-linejoin:round; stroke-width:1.38px;"/><path d="m47.65,45.71c-5.77,3.26-12.08,5.57-18.52,6.7-1.23.22-2.34-.22-2.83-1.1l-7.64-13.52" style="fill:none; stroke:#fff; stroke-linecap:round; stroke-linejoin:round; stroke-width:2.74px;"/></g><g><line x1="10.96" y1="39.23" x2="11.06" y2="53.04" style="fill:none; stroke:#fff; stroke-linecap:round; stroke-linejoin:round; stroke-width:2.74px;"/><path d="m14.01,55.89c-.03-1.6-1.35-2.87-2.95-2.85s-2.87,1.35-2.85,2.95,1.35,2.87,2.95,2.85,2.87-1.35,2.85-2.95Z" style="fill:none; stroke:#fff; stroke-linecap:round; stroke-linejoin:round; stroke-width:2.74px;"/><path d="m9.6,58.86c-.96,2.21-1.76,5.49-1.71,8.33l3.39-.06,3.39-.06c-.05-2.84-.93-6.1-1.96-8.27" style="fill:none; stroke:#fff; stroke-linecap:round; stroke-linejoin:round; stroke-width:2.74px;"/></g><g><path d="m47.65,45.71c5.77-3.26,11-7.47,15.29-12.41.82-.94,1.02-2.11.52-2.99l-7.64-13.52" style="fill:none; stroke:#231f20; stroke-linecap:round; stroke-linejoin:round; stroke-width:1.38px;"/><path d="m47.65,45.71c5.77-3.26,11-7.47,15.29-12.41.82-.94,1.02-2.11.52-2.99l-7.64-13.52" style="fill:none; stroke:#fff; stroke-linecap:round; stroke-linejoin:round; stroke-width:2.74px;"/></g></g></g></g></svg>