<?xml version="1.0" encoding="utf-8"?>
<!-- Generator: Adobe Illustrator 27.2.0, SVG Export Plug-In . SVG Version: 6.00 Build 0)  -->
<svg version="1.1" id="Layer_2_00000082351855833402861200000009842285354520435879_"
	 xmlns="http://www.w3.org/2000/svg" xmlns:xlink="http://www.w3.org/1999/xlink" x="0px" y="0px" viewBox="0 0 108.5 135.9"
	 style="enable-background:new 0 0 108.5 135.9;" xml:space="preserve">
<style type="text/css">
	.st0{fill:#0D4D97;}
	.st1{fill:none;stroke:#231F20;stroke-width:3;stroke-linecap:round;stroke-linejoin:round;}
</style>
<g id="Icon_Set">
	<g>
		<circle class="st0" cx="67.3" cy="41.2" r="41.2"/>
		<g>
			<path class="st1" d="M67.3,103.4c10.9-1.9,21.4-7.1,29.9-15.6"/>
			<line class="st1" x1="91.6" y1="82.3" x2="97.1" y2="87.9"/>
			<line class="st1" x1="17.9" y1="8.6" x2="23.6" y2="14.3"/>
			<path class="st1" d="M17.9,8.6C-4,30.5-4,66,17.9,87.9c11,11,25.4,16.5,39.8,16.4v12.3"/>
			<path class="st1" d="M80.2,124.9c4.9,0,8.9,4,8.9,8.9v0.6h-63v-0.6c0-4.9,4-8.9,8.9-8.9h3.2c0-4.6,3.7-8.4,8.4-8.4H69
				c4.6,0,8.4,3.7,8.4,8.4H80.2z"/>
			<ellipse class="st1" cx="57.5" cy="48.3" rx="40.7" ry="40.6"/>
		</g>
	</g>
</g>
</svg>
