<?xml version="1.0" encoding="UTF-8"?>
<svg id="Layer_1" xmlns="http://www.w3.org/2000/svg" version="1.1" viewBox="0 0 510 120">
  <!-- Generator: Adobe Illustrator 29.1.0, SVG Export Plug-In . SVG Version: 2.1.0 Build 142)  -->
  <defs>
    <style>
      .st0 {
        fill: #fff;
      }
    </style>
  </defs>
  <g>
    <path class="st0" d="M14.74,83.9h3.78v24.49h-3.78v-24.49Z"/>
    <path class="st0" d="M24.07,93.27h3.64l-.07,2.81c.94-1.98,2.85-3.13,5.11-3.13,3.35,0,5.65,2.38,5.65,6.48v8.96h-3.64v-8.68c0-2.16-1.01-3.42-3.13-3.42-2.38,0-3.93,1.44-3.93,3.89v8.21h-3.64v-15.12Z"/>
    <path class="st0" d="M41.85,105.58l2.48-1.73c.94,1.33,2.34,1.94,4.07,1.94,1.84,0,2.67-.61,2.67-1.62,0-1.22-1.12-1.4-3.67-2.12-2.23-.61-4.47-1.66-4.47-4.64s2.41-4.47,5.4-4.47c2.41,0,4.11,1.01,5.26,2.27l-2.12,2.09c-.72-.83-1.77-1.48-3.13-1.48s-2.12.51-2.12,1.41c0,1.15.94,1.41,3.31,2.02,2.38.61,4.97,1.55,4.97,4.75,0,2.59-1.58,4.72-5.87,4.72-3.46,0-5.76-1.51-6.77-3.13Z"/>
    <path class="st0" d="M58.52,93.27h3.67l-.11,2.81c.97-1.87,2.77-3.13,5.37-3.13,3.89,0,7.02,3.28,7.02,7.85s-3.17,7.92-7.09,7.92c-2.52,0-4.32-1.23-5.19-2.92v10.23h-3.67v-22.76ZM70.72,100.79c0-2.73-1.66-4.61-4.28-4.61s-4.39,1.87-4.39,4.61,1.73,4.72,4.39,4.72,4.28-1.87,4.28-4.72Z"/>
    <path class="st0" d="M78.24,87.4c0-1.37,1.12-2.38,2.41-2.38s2.41,1.01,2.41,2.38c0,1.44-1.12,2.41-2.41,2.41s-2.41-.97-2.41-2.41ZM78.82,93.27h3.67v15.12h-3.67v-15.12Z"/>
    <path class="st0" d="M87.57,93.27h3.64l-.04,2.84c1.01-2.37,2.74-3.13,4.39-3.13,1.08,0,1.84.25,2.48.64l-1.22,3.28c-.58-.29-1.15-.51-1.98-.51-2.16,0-3.64,1.26-3.64,4.65v7.34h-3.64v-15.12Z"/>
    <path class="st0" d="M100.89,87.4c0-1.37,1.12-2.38,2.41-2.38s2.41,1.01,2.41,2.38c0,1.44-1.12,2.41-2.41,2.41s-2.41-.97-2.41-2.41ZM101.46,93.27h3.67v15.12h-3.67v-15.12Z"/>
    <path class="st0" d="M110.21,93.27h3.64l-.07,2.81c.94-1.98,2.85-3.13,5.11-3.13,3.35,0,5.65,2.38,5.65,6.48v8.96h-3.64v-8.68c0-2.16-1.01-3.42-3.13-3.42-2.38,0-3.93,1.44-3.93,3.89v8.21h-3.64v-15.12Z"/>
    <path class="st0" d="M128.86,112.42l2.63-1.94c1.19,1.73,2.67,2.85,5.08,2.85,2.74,0,4.39-1.51,4.39-4.9v-2.63c-.9,1.69-2.7,2.92-5.22,2.92-3.93,0-7.09-3.35-7.09-7.92s3.17-7.85,7.02-7.85c2.67,0,4.43,1.3,5.4,3.13l-.11-2.81h3.64v15.34c0,5.55-3.42,7.78-7.85,7.78-3.89,0-6.52-1.69-7.89-3.96ZM141.07,100.79c0-2.73-1.73-4.61-4.39-4.61s-4.28,1.87-4.28,4.61,1.66,4.72,4.28,4.72,4.39-1.87,4.39-4.72Z"/>
    <path class="st0" d="M157.7,96.15c0-7.31,5.3-12.53,12.57-12.53,3.75,0,6.7,1.04,8.68,3.28l-2.56,2.56c-1.4-1.47-3.2-2.41-6.12-2.41-5.11,0-8.68,3.89-8.68,9.11s3.6,9.15,9.18,9.15c2.48,0,4.64-.65,6.01-1.59v-4.57h-6.59v-3.32h10.08v9.76c-1.59,1.44-4.97,3.13-9.51,3.13-7.67,0-13.07-5.26-13.07-12.57Z"/>
    <path class="st0" d="M185.16,82.39h3.64v26h-3.64v-26Z"/>
    <path class="st0" d="M193.15,100.83c0-4.5,3.6-7.89,8.18-7.89s8.14,3.39,8.14,7.89-3.53,7.89-8.14,7.89-8.18-3.39-8.18-7.89ZM205.72,100.83c0-2.77-1.69-4.72-4.39-4.72s-4.43,1.95-4.43,4.72,1.73,4.76,4.43,4.76,4.39-1.98,4.39-4.76Z"/>
    <path class="st0" d="M217.24,105.65l.11,2.73h-3.67v-26h3.67v13.51c1.01-1.73,2.7-2.95,5.26-2.95,3.93,0,7.02,3.28,7.02,7.85s-3.17,7.92-7.09,7.92c-2.52,0-4.36-1.23-5.3-3.06ZM225.88,100.79c0-2.73-1.66-4.61-4.28-4.61s-4.39,1.87-4.39,4.61,1.73,4.72,4.39,4.72,4.28-1.87,4.28-4.72Z"/>
    <path class="st0" d="M239.81,95.97c-1.98,0-3.13.86-3.96,1.8l-2.09-2.13c1.33-1.58,3.13-2.7,6.34-2.7,3.64,0,6.37,2.06,6.37,6.52v8.93h-3.64l.11-2.16c-1.08,1.62-2.52,2.49-4.75,2.49-2.99,0-5.44-1.41-5.44-4.79,0-3.13,2.52-4.5,5.94-4.54h4.14c0-2.41-1.08-3.42-3.03-3.42ZM238.95,101.91c-1.58,0-2.63.58-2.63,1.91s1.01,1.98,2.88,1.98c2.12,0,3.64-1.04,3.64-2.7v-1.19h-3.89Z"/>
    <path class="st0" d="M251.44,82.39h3.64v26h-3.64v-26Z"/>
    <path class="st0" d="M268.32,96.15c0-7.31,5.62-12.53,12.57-12.53,4.39,0,7.63,1.62,9.79,4.86l-2.92,2.09c-1.37-2.13-3.67-3.53-6.88-3.53-5.08,0-8.68,3.89-8.68,9.11s3.6,9.15,8.68,9.15c3.38,0,5.65-1.51,7.24-3.85l2.92,2.05c-2.13,3.24-5.58,5.22-10.16,5.22-6.95,0-12.57-5.26-12.57-12.57Z"/>
    <path class="st0" d="M294.71,82.39h3.64v13.54c.97-1.87,2.77-2.99,5.04-2.99,3.35,0,5.65,2.38,5.65,6.48v8.96h-3.64v-8.68c0-2.16-1.01-3.42-3.13-3.42-2.38,0-3.92,1.44-3.92,3.89v8.21h-3.64v-26Z"/>
    <path class="st0" d="M319.99,95.97c-1.98,0-3.13.86-3.96,1.8l-2.09-2.13c1.33-1.58,3.13-2.7,6.34-2.7,3.64,0,6.37,2.06,6.37,6.52v8.93h-3.64l.11-2.16c-1.08,1.62-2.52,2.49-4.75,2.49-2.99,0-5.44-1.41-5.44-4.79,0-3.13,2.52-4.5,5.94-4.54h4.14c0-2.41-1.08-3.42-3.02-3.42ZM319.12,101.91c-1.59,0-2.63.58-2.63,1.91s1.01,1.98,2.88,1.98c2.12,0,3.64-1.04,3.64-2.7v-1.19h-3.89Z"/>
    <path class="st0" d="M331.47,93.27h3.64l-.07,2.81c.94-1.98,2.85-3.13,5.11-3.13,3.35,0,5.65,2.38,5.65,6.48v8.96h-3.64v-8.68c0-2.16-1.01-3.42-3.13-3.42-2.38,0-3.93,1.44-3.93,3.89v8.21h-3.64v-15.12Z"/>
    <path class="st0" d="M350.11,112.42l2.63-1.94c1.19,1.73,2.67,2.85,5.08,2.85,2.74,0,4.39-1.51,4.39-4.9v-2.63c-.9,1.69-2.7,2.92-5.22,2.92-3.93,0-7.09-3.35-7.09-7.92s3.17-7.85,7.02-7.85c2.67,0,4.43,1.3,5.4,3.13l-.11-2.81h3.64v15.34c0,5.55-3.42,7.78-7.85,7.78-3.89,0-6.52-1.69-7.89-3.96ZM362.32,100.79c0-2.73-1.73-4.61-4.39-4.61s-4.28,1.87-4.28,4.61,1.66,4.72,4.28,4.72,4.39-1.87,4.39-4.72Z"/>
    <path class="st0" d="M378.56,105.65c1.98,0,3.42-.8,4.29-1.62l2.12,2.23c-1.41,1.41-3.35,2.45-6.37,2.45-5.19,0-8.54-3.35-8.54-7.89s3.53-7.89,8.07-7.89c5.15,0,8.07,3.82,7.81,9.11h-12.17c.43,2.2,2.02,3.6,4.79,3.6ZM382.27,99.53c-.32-2.05-1.59-3.56-4.11-3.56-2.34,0-3.96,1.29-4.39,3.56h8.5Z"/>
    <path class="st0" d="M390.15,93.27h3.64l-.07,2.59c1.01-1.91,2.56-2.92,4.5-2.92,2.2,0,3.64,1.04,4.43,2.88,1.19-1.8,2.99-2.88,5.19-2.88,3.56,0,5.69,2.38,5.69,6.23v9.22h-3.64v-8.86c0-2.09-.76-3.24-2.84-3.24s-3.39,1.3-3.39,3.82v8.28h-3.64v-8.86c0-2.09-.72-3.24-2.81-3.24s-3.42,1.3-3.42,3.82v8.28h-3.64v-15.12Z"/>
    <path class="st0" d="M424.45,95.97c-1.98,0-3.13.86-3.96,1.8l-2.09-2.13c1.33-1.58,3.13-2.7,6.34-2.7,3.64,0,6.37,2.06,6.37,6.52v8.93h-3.64l.11-2.16c-1.08,1.62-2.52,2.49-4.75,2.49-2.99,0-5.44-1.41-5.44-4.79,0-3.13,2.52-4.5,5.94-4.54h4.14c0-2.41-1.08-3.42-3.03-3.42ZM423.59,101.91c-1.58,0-2.63.58-2.63,1.91s1.01,1.98,2.88,1.98c2.12,0,3.64-1.04,3.64-2.7v-1.19h-3.89Z"/>
    <path class="st0" d="M439.58,108.39h-3.64v-26h3.64v15.02c0,.94-.11,1.87-.18,2.67l6.05-6.81h4.14l-5.58,6.3,6.34,8.82h-4.28l-4.57-6.45-1.91,1.98v4.46Z"/>
    <path class="st0" d="M460.71,105.65c1.98,0,3.42-.8,4.29-1.62l2.12,2.23c-1.41,1.41-3.35,2.45-6.37,2.45-5.19,0-8.54-3.35-8.54-7.89s3.53-7.89,8.07-7.89c5.15,0,8.07,3.82,7.81,9.11h-12.17c.43,2.2,2.02,3.6,4.79,3.6ZM464.42,99.53c-.32-2.05-1.59-3.56-4.11-3.56-2.34,0-3.96,1.29-4.39,3.56h8.5Z"/>
    <path class="st0" d="M472.3,93.27h3.64l-.04,2.84c1.01-2.37,2.74-3.13,4.39-3.13,1.08,0,1.84.25,2.48.64l-1.22,3.28c-.58-.29-1.15-.51-1.98-.51-2.16,0-3.64,1.26-3.64,4.65v7.34h-3.64v-15.12Z"/>
    <path class="st0" d="M484.36,105.58l2.49-1.73c.94,1.33,2.34,1.94,4.07,1.94,1.84,0,2.66-.61,2.66-1.62,0-1.22-1.12-1.4-3.67-2.12-2.23-.61-4.47-1.66-4.47-4.64s2.41-4.47,5.4-4.47c2.41,0,4.1,1.01,5.26,2.27l-2.12,2.09c-.72-.83-1.77-1.48-3.13-1.48s-2.13.51-2.13,1.41c0,1.15.94,1.41,3.31,2.02,2.38.61,4.97,1.55,4.97,4.75,0,2.59-1.58,4.72-5.87,4.72-3.46,0-5.76-1.51-6.77-3.13Z"/>
  </g>
  <g>
    <g>
      <path class="st0" d="M38.67,49.59c-5.43,2.8-12.4,3.46-14.71,3.46-12.02,0-17.62-9.28-17.62-17.29s5.76-18.55,19.15-18.55c5.87,0,9.77,1.87,10.92,1.87.49,0,.93-.11,1.26-.39h.77v8.89h-1.1c-1.48-6.86-6.15-9-11.25-9-9.66,0-14.6,8.01-14.6,16.85,0,11.25,7.9,16.24,14.21,16.24,2.52,0,5.33-.55,8.4-2.08v-6.91c0-3.13-1.1-4.17-4.39-4.17h-2.03v-.99h14.82v.99c-2.74.16-3.84,1.1-3.84,3.45v7.63Z"/>
      <path class="st0" d="M66.55,53.05c-10.76,0-19.81-6.92-19.81-17.18,0-10.92,8.4-18.66,20.09-18.66,10.37,0,19.26,7.08,19.26,16.96,0,11.08-8.89,18.88-19.54,18.88ZM65.39,18.58c-9.66,0-13.5,9-13.5,15.59,0,10.26,6.97,17.5,15.8,17.5s13.23-7.9,13.23-15.69c0-10.21-6.48-17.4-15.53-17.4Z"/>
      <path class="st0" d="M130.81,18.03v1.04c-3.68.05-4.99,1.54-4.99,5.05v14.82c0,6.8-4.34,14.11-16.25,14.11-10.48,0-15.86-5.98-15.86-13.83v-16.03c0-3.51-.99-4.06-4.72-4.12v-1.04h14.1v1.04h-.49c-3.02,0-4.34.82-4.34,4.01v15.25c0,7.41,4.34,11.86,12.52,11.86,6.2,0,12.51-2.58,12.51-11.91v-12.79c0-5.27-.82-6.2-5.38-6.42v-1.04h12.9Z"/>
      <path class="st0" d="M166.86,27.03c-1.81-5.1-6.53-8.45-12.51-8.45-9.17,0-14.87,6.64-14.87,15.86,0,9.93,7.14,17.23,15.48,17.23,4.33,0,9.66-1.48,13.39-8.12h1.04c-.71,2.47-2.2,5.87-3.51,8.01-3.51-.5-5.93,1.48-12.4,1.48-11.14,0-19.15-7.36-19.15-17.51,0-10.65,8.23-18.33,19.7-18.33,6.91,0,9.88,2.2,11.58,2.2.6,0,.88-.16.99-.33h.83l.49,7.96h-1.04Z"/>
      <path class="st0" d="M182.34,35.87v10.42c0,3.57.72,4.83,4.39,4.83h.16v1.04h-13.78v-1.04h.33c3.24,0,4.34-.88,4.34-4.01v-24.15c0-2.85-.93-3.68-3.95-3.89v-1.04h13.06v1.04c-3.9,0-4.56,1.04-4.56,5.27v9.55h21.51v-10.81c0-2.91-.93-4.01-4.33-4.01h-1.05v-1.04h14.11v1.04c-3.29.11-4.17,1.1-4.17,4.5v22.78c0,3.89,1.1,4.77,4.39,4.77h.55v1.04h-15.53v-1.04h1.7c3.57,0,4.33-1.26,4.33-4.12v-11.14h-21.51Z"/>
      <path class="st0" d="M243.42,39.82h-1.04c-.44-3.9-1.48-4.34-3.73-4.34h-9.27v11.69c0,2.53.93,3.02,2.96,3.02h8.45c3.85,0,4.99-1.48,6.37-6.2h.98l-.87,8.18h-29.14v-1.04h1.54c4.39,0,5.16-1.21,5.16-4.5v-23.16c0-3.07-.72-4.39-4.39-4.39h-1.21v-1.04h26.34l.44,7.63h-.99c-.71-4.67-2.09-5.65-4.06-5.65h-11.58v13.5h9.82c1.97,0,2.91-.93,3.18-4.12h1.04v10.43Z"/>
      <path class="st0" d="M262.84,47.01c0,3.29,1.32,4.12,4.39,4.12h1.27v1.04h-15.53v-1.04h.93c3.23,0,4.39-.88,4.39-4.56v-23.1c0-3.4-.93-4.39-4.12-4.39h-1.21v-1.04c1.32,0,4.66-.22,6.91-.33,2.25-.11,3.35-.17,6.92-.17,10.15,0,14.71,4.17,14.71,9.77,0,4.12-2.8,7.57-7.3,8.89,2.03,1.59,3.68,3.13,6.26,5.71l4.33,4.34c3.24,3.24,6.59,5.27,10.81,5.54v.99c-9.61.44-12.08-1.65-16.96-6.53l-3.62-3.62c-2.41-2.41-4.34-4.01-5.66-4.88-1.37.05-2.25.11-3.73.11-1.21,0-1.92-.05-2.8-.11v9.27ZM262.84,36.69c1.32.16,2.14.11,3.4.11,6.1,0,10.1-2.58,10.1-9.16,0-5.11-2.3-9.06-10.76-9.06-1.04,0-1.75,0-2.74.11v18Z"/>
    </g>
    <rect class="st0" x="314.27" y="3.62" width="1.73" height="60.66"/>
    <g>
      <path class="st0" d="M334.82,40.73c0-6.4,4.93-11.65,11.32-11.65,3.77,0,6.56,1.42,8.48,3.77l-1.53,1.26c-1.58-1.97-3.66-3.12-6.94-3.12-5.47,0-9.08,4.21-9.08,9.74s3.61,9.68,9.08,9.68c3.49,0,5.8-1.31,7.38-3.33l1.53,1.26c-2.08,2.57-4.86,3.99-8.91,3.99-6.4,0-11.32-5.2-11.32-11.59Z"/>
      <path class="st0" d="M362.92,40.68c0-6.4,5.14-11.59,11.64-11.59s11.54,5.19,11.54,11.59-5.03,11.65-11.54,11.65-11.64-5.25-11.64-11.65ZM383.92,40.68c0-5.52-3.77-9.68-9.35-9.68s-9.46,4.16-9.46,9.68,3.88,9.73,9.46,9.73,9.35-4.21,9.35-9.73Z"/>
      <path class="st0" d="M396.6,12.4h2.13v39.48h-2.13V12.4Z"/>
      <path class="st0" d="M411.3,12.4h2.13v39.48h-2.13V12.4Z"/>
      <path class="st0" d="M435.58,50.41c3.71,0,6.18-1.47,7.82-3.5l1.41,1.26c-1.97,2.46-5.08,4.16-9.24,4.16-7.06,0-11.65-5.2-11.65-11.59s4.87-11.65,11.21-11.65c6.78,0,11.05,5.31,10.94,12.08h-19.96c.16,5.42,3.72,9.24,9.46,9.24ZM443.89,39.42c-.33-4.6-3.17-8.48-8.75-8.48-5.08,0-8.42,3.61-8.96,8.48h17.72Z"/>
      <path class="st0" d="M475.05,29.57v1.81h-5.03c1.53,1.37,2.41,3.22,2.41,5.47,0,4.54-3.44,7.82-8.36,7.82-1.69,0-3.17-.33-4.43-1.04-1.75.27-2.62,1.36-2.62,2.68,0,1.69,1.2,2.51,3.22,2.68l5.8.55c6.45.6,9.35,2.57,9.35,6.78,0,4.93-4.98,7.77-11.65,7.77s-11.15-2.68-11.15-7.33c0-3.39,2.4-5.25,5.8-6.24-2.19-.6-3.28-2.13-3.28-3.99s1.26-3.39,3.06-3.94c-1.64-1.36-2.63-3.39-2.63-5.74,0-4.54,3.61-7.77,8.54-7.77,1.03,0,2.13.16,3.06.49h7.93ZM454.76,56.7c0,3.55,3.12,5.52,8.97,5.52,5.42,0,9.52-2.02,9.52-5.91,0-3.06-1.69-4.43-7.49-4.87l-4.71-.33c-3.61.71-6.29,2.41-6.29,5.58ZM470.35,36.85c0-3.61-2.4-5.96-6.29-5.96s-6.4,2.35-6.4,5.96,2.41,6.01,6.4,6.01,6.29-2.4,6.29-6.01Z"/>
      <path class="st0" d="M493.16,50.41c3.71,0,6.18-1.47,7.82-3.5l1.42,1.26c-1.97,2.46-5.08,4.16-9.24,4.16-7.06,0-11.65-5.2-11.65-11.59s4.87-11.65,11.21-11.65c6.78,0,11.04,5.31,10.94,12.08h-19.96c.16,5.42,3.71,9.24,9.46,9.24ZM501.46,39.42c-.33-4.6-3.17-8.48-8.75-8.48-5.09,0-8.42,3.61-8.97,8.48h17.72Z"/>
    </g>
  </g>
</svg>