<?xml version="1.0" encoding="UTF-8"?><svg id="Layer_2" xmlns="http://www.w3.org/2000/svg" viewBox="0 0 122.21 124.65"><g id="Icon_Set"><g><circle cx="33.32" cy="60.12" r="14.68" style="fill:#509d93;"/><circle cx="69.42" cy="71.71" r="14.68" style="fill:#509d93;"/><circle cx="105.53" cy="60.12" r="14.68" style="fill:#509d93;"/><g><g><g><line x1="61.19" y1="12.13" x2="61.19" y2="1.64" style="fill:none; stroke:#231f20; stroke-linecap:round; stroke-linejoin:round; stroke-width:3.28px;"/><line x1="75.55" y1="14.66" x2="79.41" y2="4.06" style="fill:none; stroke:#231f20; stroke-linecap:round; stroke-linejoin:round; stroke-width:3.28px;"/><line x1="89" y1="21.14" x2="96.06" y2="12.72" style="fill:none; stroke:#231f20; stroke-linecap:round; stroke-linejoin:round; stroke-width:3.28px;"/><line x1="97.59" y1="30.09" x2="107.58" y2="24.32" style="fill:none; stroke:#231f20; stroke-linecap:round; stroke-linejoin:round; stroke-width:3.28px;"/><line x1="23.18" y1="32.31" x2="14.63" y2="27.37" style="fill:none; stroke:#231f20; stroke-linecap:round; stroke-linejoin:round; stroke-width:3.28px;"/><line x1="32.5" y1="22.07" x2="25.66" y2="13.91" style="fill:none; stroke:#231f20; stroke-linecap:round; stroke-linejoin:round; stroke-width:3.28px;"/><line x1="46.82" y1="15.48" x2="42.99" y2="4.94" style="fill:none; stroke:#231f20; stroke-linecap:round; stroke-linejoin:round; stroke-width:3.28px;"/></g><g><line x1="61.19" y1="12.13" x2="61.19" y2="1.64" style="fill:none; stroke:#231f20; stroke-linecap:round; stroke-linejoin:round; stroke-width:3px;"/><line x1="75.55" y1="14.66" x2="79.41" y2="4.06" style="fill:none; stroke:#231f20; stroke-linecap:round; stroke-linejoin:round; stroke-width:3px;"/><line x1="89" y1="21.14" x2="96.06" y2="12.72" style="fill:none; stroke:#231f20; stroke-linecap:round; stroke-linejoin:round; stroke-width:3px;"/><line x1="97.59" y1="30.09" x2="107.58" y2="24.32" style="fill:none; stroke:#231f20; stroke-linecap:round; stroke-linejoin:round; stroke-width:3px;"/><line x1="23.18" y1="32.31" x2="14.63" y2="27.37" style="fill:none; stroke:#231f20; stroke-linecap:round; stroke-linejoin:round; stroke-width:3px;"/><line x1="32.5" y1="22.07" x2="25.66" y2="13.91" style="fill:none; stroke:#231f20; stroke-linecap:round; stroke-linejoin:round; stroke-width:3px;"/><line x1="46.82" y1="15.48" x2="42.99" y2="4.94" style="fill:none; stroke:#231f20; stroke-linecap:round; stroke-linejoin:round; stroke-width:3px;"/></g></g><g><g><path d="m48.23,86.39l-7.07,5.81c-2.16,1.77-3.41,4.42-3.41,7.22v23.59" style="fill:none; stroke:#231f20; stroke-linecap:round; stroke-linejoin:round; stroke-width:3.28px;"/><path d="m73.98,86.39l7.07,5.81c2.16,1.77,3.41,4.42,3.41,7.22v23.59" style="fill:none; stroke:#231f20; stroke-linecap:round; stroke-linejoin:round; stroke-width:3.28px;"/><polyline points="46.53 101.68 46.49 106.66 46.49 121.15" style="fill:none; stroke:#231f20; stroke-linecap:round; stroke-linejoin:round; stroke-width:3.28px;"/><polyline points="75.68 101.68 75.71 106.66 75.71 121.15" style="fill:none; stroke:#231f20; stroke-linecap:round; stroke-linejoin:round; stroke-width:3.28px;"/><circle cx="61.1" cy="69.25" r="14.68" style="fill:none; stroke:#231f20; stroke-linecap:round; stroke-linejoin:round; stroke-width:3.28px;"/></g><g><path d="m48.23,86.39l-7.07,5.81c-2.16,1.77-3.41,4.42-3.41,7.22v23.59" style="fill:none; stroke:#231f20; stroke-linecap:round; stroke-linejoin:round; stroke-width:3px;"/><path d="m73.98,86.39l7.07,5.81c2.16,1.77,3.41,4.42,3.41,7.22v23.59" style="fill:none; stroke:#231f20; stroke-linecap:round; stroke-linejoin:round; stroke-width:3px;"/><polyline points="46.53 101.68 46.49 106.66 46.49 121.15" style="fill:none; stroke:#231f20; stroke-linecap:round; stroke-linejoin:round; stroke-width:3px;"/><polyline points="75.68 101.68 75.71 106.66 75.71 121.15" style="fill:none; stroke:#231f20; stroke-linecap:round; stroke-linejoin:round; stroke-width:3px;"/><circle cx="61.1" cy="69.25" r="14.68" style="fill:none; stroke:#231f20; stroke-linecap:round; stroke-linejoin:round; stroke-width:3px;"/></g></g><g><g><g><path d="m110.09,74.8l7.07,5.81c2.16,1.77,3.41,4.42,3.41,7.22v23.59" style="fill:none; stroke:#231f20; stroke-linecap:round; stroke-linejoin:round; stroke-width:3.28px;"/><polyline points="111.78 90.1 111.82 95.08 111.82 109.57" style="fill:none; stroke:#231f20; stroke-linecap:round; stroke-linejoin:round; stroke-width:3.28px;"/><circle cx="97.21" cy="57.66" r="14.68" style="fill:none; stroke:#231f20; stroke-linecap:round; stroke-linejoin:round; stroke-width:3.28px;"/></g><g><path d="m12.12,74.8l-7.07,5.81c-2.16,1.77-3.41,4.42-3.41,7.22v23.59" style="fill:none; stroke:#231f20; stroke-linecap:round; stroke-linejoin:round; stroke-width:3.28px;"/><polyline points="10.43 90.1 10.39 95.08 10.39 109.57" style="fill:none; stroke:#231f20; stroke-linecap:round; stroke-linejoin:round; stroke-width:3.28px;"/><circle cx="25" cy="57.66" r="14.68" style="fill:none; stroke:#231f20; stroke-linecap:round; stroke-linejoin:round; stroke-width:3.28px;"/></g></g><g><g><path d="m110.09,74.8l7.07,5.81c2.16,1.77,3.41,4.42,3.41,7.22v23.59" style="fill:none; stroke:#231f20; stroke-linecap:round; stroke-linejoin:round; stroke-width:3px;"/><polyline points="111.78 90.1 111.82 95.08 111.82 109.57" style="fill:none; stroke:#231f20; stroke-linecap:round; stroke-linejoin:round; stroke-width:3px;"/><circle cx="97.21" cy="57.66" r="14.68" style="fill:none; stroke:#231f20; stroke-linecap:round; stroke-linejoin:round; stroke-width:3px;"/></g><g><path d="m12.12,74.8l-7.07,5.81c-2.16,1.77-3.41,4.42-3.41,7.22v23.59" style="fill:none; stroke:#231f20; stroke-linecap:round; stroke-linejoin:round; stroke-width:3px;"/><polyline points="10.43 90.1 10.39 95.08 10.39 109.57" style="fill:none; stroke:#231f20; stroke-linecap:round; stroke-linejoin:round; stroke-width:3px;"/><circle cx="25" cy="57.66" r="14.68" style="fill:none; stroke:#231f20; stroke-linecap:round; stroke-linejoin:round; stroke-width:3px;"/></g></g></g><path d="m61.19,25.35c-10.16,0-19.18,4.13-24.75,10.47h-8.11c6.25-10.12,18.63-17.03,32.86-17.03,14.23,0,26.61,6.91,32.86,17.03h-8.11c-5.57-6.34-14.59-10.47-24.75-10.47Z" style="fill:#0d4d97;"/></g></g></g></svg>