<?xml version="1.0" encoding="UTF-8"?><svg id="Layer_2" xmlns="http://www.w3.org/2000/svg" viewBox="0 0 148.35 111.35"><g id="Layer_1-2"><g><polygon points="104.85 28.4 141.44 52.78 141.44 68.7 104.85 54.28 6.92 73.18 6.92 60.26 104.85 28.4" style="fill:#509d93;"/><polygon points="147.1 82.63 108.94 75.44 1.25 84.48 1.25 49.66 108.94 1.25 147.1 39.7 147.1 82.63" style="fill:none; stroke:#fff; stroke-linecap:round; stroke-linejoin:round; stroke-width:2.5px;"/><polygon points="103.84 17 140.43 45.09 140.43 77.66 103.84 68.96 5.91 80.64 5.91 52.65 103.84 17" style="fill:none; stroke:#fff; stroke-linecap:round; stroke-linejoin:round; stroke-width:2.5px;"/><polyline points="108.94 1.25 103.84 17 103.84 68.96" style="fill:none; stroke:#fff; stroke-linecap:round; stroke-linejoin:round; stroke-width:2.5px;"/><line x1="100.94" y1="75.44" x2="100.94" y2="110.1" style="fill:none; stroke:#fff; stroke-linejoin:round; stroke-width:2.5px;"/><line x1="140.43" y1="45.09" x2="147.1" y2="39.7" style="fill:none; stroke:#fff; stroke-linecap:round; stroke-linejoin:round; stroke-width:2.5px;"/><polyline points="34.79 104.57 100.83 110.1 131.93 104.76 132.05 80.64" style="fill:none; stroke:#fff; stroke-linecap:round; stroke-linejoin:round; stroke-width:2.5px;"/><polyline points="7.42 85.27 7.42 102.27 23.67 103.64" style="fill:none; stroke:#fff; stroke-linecap:round; stroke-linejoin:round; stroke-width:2.5px;"/><line x1="140.43" y1="77.66" x2="147.1" y2="82.63" style="fill:none; stroke:#fff; stroke-linecap:round; stroke-linejoin:round; stroke-width:2.5px;"/><line x1="5.91" y1="52.65" x2="1.25" y2="49.66" style="fill:none; stroke:#fff; stroke-linecap:round; stroke-linejoin:round; stroke-width:2.5px;"/><line x1="5.91" y1="80.64" x2="1.25" y2="84.48" style="fill:none; stroke:#fff; stroke-linecap:round; stroke-linejoin:round; stroke-width:2.5px;"/></g></g></svg>