<?xml version="1.0" encoding="UTF-8"?><svg id="Layer_2" xmlns="http://www.w3.org/2000/svg" viewBox="0 0 133.07 128.12"><g id="Icon_Set"><g><path d="m62.26,47.51h0l-5.62-17.8c-.23-.71-.03-1.5.49-1.99.21-.21.47-.36.75-.45.4-.13.83-.11,1.22.03,1.29.48,2.71.52,4,.12,1.95-.61,3.02-2.74,2.39-4.73l-.88-2.8c-.63-2-2.73-3.12-4.67-2.51-1.28.41-2.42,1.26-3.2,2.39-.4.59-1.15.91-1.85.79-.73-.12-1.32-.64-1.55-1.35L47.27,0C47.17.03.88,14.64.88,14.64c-.67.21-1.03.92-.82,1.6l14.61,46.29,19.31-6.1c.71-.23,1.18-.97,1.3-1.7.12-.7-.2-1.45-.79-1.85-1.13-.78-1.98-1.92-2.39-3.2-.61-1.95.51-4.04,2.51-4.67l2.8-.88c1.99-.63,4.12.44,4.73,2.39.41,1.28.36,2.7-.12,4-.15.39-.16.82-.03,1.22.09.28.24.54.45.75.5.52,1.33.87,2.04.64l17.78-5.61Z" style="fill:#fedd00;"/><path d="m94.91,126.62c14.4,0,35.4,0,35.4,0,.7,0,1.26-.57,1.26-1.28v-48.54h-20.25c-.75,0-1.42.57-1.75,1.23-.32.63-.24,1.44.2,2,.84,1.09,1.31,2.43,1.31,3.77,0,2.04-1.7,3.7-3.8,3.7h-2.94c-2.09,0-3.79-1.66-3.79-3.7,0-1.35.47-2.69,1.31-3.77.26-.32.4-.74.4-1.15,0-.29-.07-.59-.2-.85-.32-.64-1.01-1.23-1.75-1.23h-18.64v18.66c0,.75-.42,1.44-1.06,1.75-.26.14-.56.2-.85.2-.42,0-.83-.14-1.15-.4-1.09-.85-2.43-1.31-3.77-1.31-2.04,0-3.7,1.71-3.7,3.79v2.94c0,2.1,1.66,3.8,3.7,3.8,1.35,0,2.69-.47,3.77-1.31.56-.44,1.37-.52,2-.2.66.33,1.07,1.01,1.07,1.75v20.14s2.77,0,6.94,0" style="fill:none; stroke:#231f20; stroke-linecap:round; stroke-linejoin:round; stroke-width:3px;"/><path d="m31.94,90.05c0,14.38,0,35.31,0,35.31,0,.7.57,1.26,1.28,1.26h48.45v-20.25c0-.75-.48-1.42-1.14-1.75-.63-.32-1.44-.24-2,.2-1.09.84-2.43,1.31-3.77,1.31-2.04,0-3.7-1.7-3.7-3.8v-2.94c0-2.09,1.66-3.79,3.7-3.79,1.35,0,2.69.47,3.77,1.31.32.26.74.4,1.15.4.29,0,.59-.07.85-.2.64-.32,1.14-1.01,1.14-1.75v-18.55h-18.58c-.75,0-1.44-.51-1.75-1.15-.14-.26-.2-.56-.2-.85,0-.42.14-.83.4-1.15.85-1.09,1.31-2.43,1.31-3.77,0-2.04-1.71-3.7-3.79-3.7h-2.94c-2.1,0-3.8,1.66-3.8,3.7,0,1.35.47,2.69,1.31,3.77.44.56.52,1.37.2,2-.33.66-1.01,1.16-1.75,1.16h-20.14s0,2.77,0,6.94" style="fill:none; stroke:#231f20; stroke-linecap:round; stroke-linejoin:round; stroke-width:3px;"/><path d="m43.56,9.13c-13.74,4.31-33.74,10.58-33.74,10.58-.67.21-1.04.92-.82,1.59l14.52,46.32,19.32-6.06c.71-.22,1.18-.97,1.31-1.7.12-.7-.2-1.45-.79-1.85-1.13-.78-1.98-1.92-2.38-3.21-.61-1.95.52-4.04,2.52-4.67l2.8-.88c1.99-.62,4.12.45,4.73,2.4.4,1.29.36,2.7-.13,4-.15.39-.16.82-.04,1.22.09.28.24.54.45.75.5.52,1.33.87,2.04.65l17.79-5.58h0l-5.58-17.81c-.22-.71-.03-1.5.49-1.99.21-.21.47-.36.75-.45.4-.12.83-.11,1.22.04,1.29.48,2.71.53,4,.13,1.95-.61,3.02-2.74,2.4-4.73l-.88-2.8c-.63-2-2.72-3.13-4.67-2.52-1.29.4-2.42,1.25-3.21,2.38-.4.59-1.15.91-1.85.79-.73-.12-1.32-.64-1.54-1.35l-6.02-19.21s-2.66.83-6.66,2.09" style="fill:none; stroke:#231f20; stroke-linecap:round; stroke-linejoin:round; stroke-width:3px;"/><path d="m131.57,63.56c0-14.38,0-35.32,0-35.32,0-.7-.57-1.26-1.28-1.26h-48.45v20.25c0,.75.48,1.42,1.14,1.75.63.32,1.44.24,2-.2,1.09-.84,2.43-1.31,3.77-1.31,2.04,0,3.7,1.7,3.7,3.8v2.94c0,2.09-1.66,3.79-3.7,3.79-1.35,0-2.69-.47-3.77-1.31-.32-.26-.74-.4-1.15-.4-.29,0-.59.07-.85.2-.64.32-1.14,1.01-1.14,1.75v18.55h18.58c.75,0,1.44.51,1.75,1.15.14.26.2.56.2.85,0,.42-.14.83-.4,1.15-.85,1.09-1.31,2.43-1.31,3.77,0,2.04,1.71,3.7,3.79,3.7h2.94c2.1,0,3.8-1.66,3.8-3.7,0-1.35-.47-2.69-1.31-3.77-.44-.56-.52-1.37-.2-2,.33-.66,1.01-1.16,1.75-1.16h20.14s0-2.76,0-6.93" style="fill:none; stroke:#231f20; stroke-linecap:round; stroke-linejoin:round; stroke-width:3px;"/></g></g></svg>