<?xml version="1.0" encoding="UTF-8"?><svg id="Layer_2" xmlns="http://www.w3.org/2000/svg" viewBox="0 0 126.91 117.73"><g id="Layer_1-2"><g><path d="m92.78,90.3c.46-1.69.73-3.47.73-5.3,0-11.17-9.05-20.22-20.22-20.22s-20.22,9.05-20.22,20.22c0,1.84.27,3.61.73,5.31l-12.97,12.97c-.6.6-.17,1.62.67,1.62h11.9v11.9c0,.84,1.02,1.27,1.62.67l12.97-12.97c1.69.46,3.47.73,5.31.73s3.61-.27,5.3-.73l12.97,12.97c.6.6,1.62.17,1.62-.67v-11.9h11.9c.84,0,1.27-1.02.67-1.62l-12.97-12.97Z" style="fill:#fedd00;"/><g><path d="m34.27,78.14H8.59c-3.92,0-7.09-3.18-7.09-7.1V8.59c0-3.92,3.18-7.09,7.09-7.09h109.72c3.92,0,7.09,3.18,7.09,7.09v62.45c0,3.92-3.18,7.09-7.09,7.09h-25.83" style="fill:none; stroke:#fff; stroke-linecap:round; stroke-linejoin:round; stroke-width:3px;"/><g><path d="m83.67,77.99c0-11.17-9.05-20.22-20.22-20.22s-20.22,9.05-20.22,20.22,9.05,20.22,20.22,20.22,20.22-9.05,20.22-20.22Z" style="fill:none; stroke:#fff; stroke-linecap:round; stroke-linejoin:round; stroke-width:3px;"/><polyline points="69.11 97.83 83.35 112.07 83.35 97.88 97.54 97.88 83.3 83.64" style="fill:none; stroke:#fff; stroke-linecap:round; stroke-linejoin:round; stroke-width:3px;"/><polyline points="57.8 97.83 43.56 112.07 43.56 97.88 29.37 97.88 43.61 83.64" style="fill:none; stroke:#fff; stroke-linecap:round; stroke-linejoin:round; stroke-width:3px;"/></g><line x1="89.85" y1="38.14" x2="37.06" y2="38.14" style="fill:none; stroke:#fff; stroke-linecap:round; stroke-linejoin:round; stroke-width:3px;"/><line x1="27.76" y1="22.7" x2="99.15" y2="22.7" style="fill:none; stroke:#fff; stroke-linecap:round; stroke-linejoin:round; stroke-width:3px;"/></g></g></g></svg>